<svg width="64" height="64" viewBox="0 0 64 64" fill="none" xmlns="http://www.w3.org/2000/svg">
<g clip-path="url(#clip0_126_3)">
<mask id="mask0_126_3" style="mask-type:luminance" maskUnits="userSpaceOnUse" x="0" y="0" width="64" height="64">
<path d="M0.0599976 64V0.039978H64V64H0.0599976Z" fill="white"/>
</mask>
<g mask="url(#mask0_126_3)">
<path fill-rule="evenodd" clip-rule="evenodd" d="M64 32C64 49.673 49.673 64 32 64C14.327 64 0 49.673 0 32C0 14.327 14.327 0 32 0C49.673 0 64 14.327 64 32Z" fill="#76ABC4"/>
</g>
<path fill-rule="evenodd" clip-rule="evenodd" d="M32 56C32 56 31.463 53.597 30.775 49.944C20.303 49.372 12 41.569 12 32C12 22.059 20.954 14 32 14C43.046 14 52 22.059 52 32C52 38.795 47.814 44.706 41.639 47.77C37.045 52.956 32 56 32 56Z" fill="#638DA0"/>
<path fill-rule="evenodd" clip-rule="evenodd" d="M49 28.8C49 43.763 32 54 32 54C32 54 22.611 12 32 12C41.389 12 49 19.522 49 28.8Z" fill="#FFFFFE"/>
<path fill-rule="evenodd" clip-rule="evenodd" d="M52 30C52 39.941 43.046 48 32 48C20.954 48 12 39.941 12 30C12 20.059 20.954 12 32 12C43.046 12 52 20.059 52 30Z" fill="#FFFFFE"/>
<path fill-rule="evenodd" clip-rule="evenodd" d="M34 30C34.006 29.7336 33.9588 29.4688 33.861 29.221C33.7633 28.9731 33.617 28.7473 33.4308 28.5568C33.2446 28.3663 33.0222 28.2149 32.7767 28.1115C32.5311 28.0081 32.2674 27.9548 32.001 27.9548C31.7346 27.9547 31.4709 28.0079 31.2253 28.1111C30.9797 28.2144 30.7572 28.3657 30.5709 28.5561C30.3846 28.7465 30.2382 28.9723 30.1404 29.22C30.0425 29.4678 29.9951 29.7326 30.001 29.999C30.0126 30.5216 30.2282 31.0188 30.6018 31.3844C30.9755 31.7499 31.4773 31.9546 32 31.9548C32.5227 31.9549 33.0247 31.7504 33.3985 31.3851C33.7723 31.0197 33.9882 30.5225 34 30Z" fill="#4C5665"/>
<path fill-rule="evenodd" clip-rule="evenodd" d="M42 30C42.006 29.7336 41.9588 29.4688 41.861 29.221C41.7633 28.9731 41.617 28.7473 41.4308 28.5568C41.2446 28.3663 41.0222 28.2149 40.7767 28.1115C40.5311 28.0081 40.2674 27.9548 40.001 27.9548C39.7346 27.9547 39.4709 28.0079 39.2253 28.1111C38.9797 28.2144 38.7572 28.3657 38.5709 28.5561C38.3846 28.7465 38.2382 28.9723 38.1404 29.22C38.0425 29.4678 37.9951 29.7326 38.001 29.999C38.0126 30.5216 38.2282 31.0188 38.6018 31.3844C38.9755 31.7499 39.4773 31.9546 40 31.9548C40.5227 31.9549 41.0247 31.7504 41.3985 31.3851C41.7723 31.0197 41.9882 30.5225 42 30Z" fill="#4C5665"/>
<path fill-rule="evenodd" clip-rule="evenodd" d="M26 30C26.006 29.7336 25.9588 29.4688 25.861 29.221C25.7633 28.9731 25.617 28.7473 25.4308 28.5568C25.2446 28.3663 25.0222 28.2149 24.7767 28.1115C24.5311 28.0081 24.2674 27.9548 24.001 27.9548C23.7346 27.9547 23.4709 28.0079 23.2253 28.1111C22.9797 28.2144 22.7572 28.3657 22.5709 28.5561C22.3846 28.7465 22.2382 28.9723 22.1404 29.22C22.0425 29.4678 21.9951 29.7326 22.001 29.999C22.0126 30.5216 22.2282 31.0188 22.6018 31.3844C22.9755 31.7499 23.4773 31.9546 24 31.9548C24.5227 31.9549 25.0247 31.7504 25.3985 31.3851C25.7723 31.0197 25.9882 30.5225 26 30Z" fill="#4C5665"/>
</g>
<defs>
<clipPath id="clip0_126_3">
<rect width="64" height="64" fill="white"/>
</clipPath>
</defs>
</svg>
